<?xml version="1.0" standalone="no"?><!DOCTYPE svg PUBLIC "-//W3C//DTD SVG 1.1//EN" "http://www.w3.org/Graphics/SVG/1.1/DTD/svg11.dtd"><svg t="1581407668116" class="icon" viewBox="0 0 1024 1024" version="1.1" xmlns="http://www.w3.org/2000/svg" p-id="19364" xmlns:xlink="http://www.w3.org/1999/xlink" width="200" height="200"><defs><style type="text/css"></style></defs><path d="M1001.472 301.056L783.36 83.968c-8.192-8.192-18.432-12.288-29.696-12.288H270.336c-11.264 0-21.504 4.096-29.696 12.288L22.528 301.056c-8.192 8.192-12.288 18.432-12.288 29.696v86.016c0 10.24 4.096 20.48 10.24 27.648l460.8 515.072c16.384 18.432 45.056 18.432 61.44 0l460.8-515.072c7.168-7.168 10.24-17.408 10.24-27.648v-86.016c0-11.264-4.096-21.504-12.288-29.696z m-70.656 128L512 898.048 93.184 429.056v-99.328l202.752-201.728h433.152L931.84 329.728v99.328z" fill="#FFB235" p-id="19365"></path><path d="M295.936 126.976L93.184 328.704v99.328L512 898.048l418.816-468.992v-99.328L728.064 126.976H295.936z m216.064 614.4L200.704 325.632h184.32l-14.336 38.912L512 557.056l141.312-191.488-14.336-38.912h184.32L512 741.376z" fill="#FFD31A" p-id="19366"></path><path d="M653.312 364.544L512 557.056 370.688 364.544l14.336-38.912h-184.32L512 740.352v1.024l311.296-414.72h-184.32z" fill="#FFFFFF" p-id="19367"></path></svg>