<?xml version="1.0" standalone="no"?><!DOCTYPE svg PUBLIC "-//W3C//DTD SVG 1.1//EN" "http://www.w3.org/Graphics/SVG/1.1/DTD/svg11.dtd"><svg t="1581411023699" class="icon" viewBox="0 0 1026 1024" version="1.1" xmlns="http://www.w3.org/2000/svg" p-id="22983" xmlns:xlink="http://www.w3.org/1999/xlink" width="200.390625" height="200"><defs><style type="text/css"></style></defs><path d="M151.04 150.016h723.968c14.336 0 26.624 11.776 26.624 26.624v17.408c0 14.336-11.776 26.624-26.624 26.624h-723.968c-14.336 0-26.624-11.776-26.624-26.624v-17.408c0-14.848 11.776-26.624 26.624-26.624M151.04 467.968h723.968c14.336 0 26.624 11.776 26.624 26.624v17.408c0 14.336-11.776 26.624-26.624 26.624h-723.968c-14.336 0-26.624-11.776-26.624-26.624v-17.408c0-14.848 11.776-26.624 26.624-26.624M151.04 803.328h723.968c14.336 0 26.624 11.776 26.624 26.624v17.408c0 14.336-11.776 26.624-26.624 26.624h-723.968c-14.336 0-26.624-11.776-26.624-26.624V829.952c0-14.848 11.776-26.624 26.624-26.624" p-id="22984"></path></svg>