<?xml version="1.0" standalone="no"?><!DOCTYPE svg PUBLIC "-//W3C//DTD SVG 1.1//EN" "http://www.w3.org/Graphics/SVG/1.1/DTD/svg11.dtd"><svg t="1581411143561" class="icon" viewBox="0 0 1024 1024" version="1.1" xmlns="http://www.w3.org/2000/svg" p-id="33386" xmlns:xlink="http://www.w3.org/1999/xlink" width="200" height="200"><defs><style type="text/css"></style></defs><path d="M643.2 480l-75.2-11.2-33.6-68.8c-11.2-24-30.4-22.4-41.6 0l-33.6 68.8-75.2 11.2c-25.6 3.2-30.4 20.8-12.8 38.4l54.4 52.8-12.8 75.2c-4.8 25.6 11.2 36.8 33.6 24l67.2-35.2 67.2 35.2c22.4 12.8 36.8 1.6 33.6-24l-12.8-75.2 54.4-52.8c19.2-17.6 12.8-35.2-12.8-38.4z" fill="#b22614" p-id="33387"></path><path d="M766.4 68.8l-56 228.8c-67.2-64-179.2-70.4-179.2-70.4L576 4.8C553.6 1.6 532.8 0 512 0s-41.6 1.6-62.4 3.2l44.8 222.4s-113.6 6.4-179.2 70.4L257.6 68.8C104 156.8 0 323.2 0 512c0 281.6 230.4 512 512 512s512-230.4 512-512c0-188.8-104-355.2-257.6-443.2z m-252.8 752c-153.6 0-276.8-124.8-276.8-276.8 0-153.6 124.8-276.8 276.8-276.8 153.6 0 276.8 124.8 276.8 276.8 0 153.6-123.2 276.8-276.8 276.8z" fill="#b22614" p-id="33388"></path></svg>