<?xml version="1.0" standalone="no"?><!DOCTYPE svg PUBLIC "-//W3C//DTD SVG 1.1//EN" "http://www.w3.org/Graphics/SVG/1.1/DTD/svg11.dtd"><svg t="1581411193640" class="icon" viewBox="0 0 1024 1024" version="1.1" xmlns="http://www.w3.org/2000/svg" p-id="37592" xmlns:xlink="http://www.w3.org/1999/xlink" width="200" height="200"><defs><style type="text/css"></style></defs><path d="M511.648 511.648m-64 0a64 64 0 1 0 128 0 64 64 0 1 0-128 0Z" fill="#d81e06" p-id="37593"></path><path d="M873.6 149.696c-199.552-199.584-524.384-199.584-723.936 0-199.552 199.584-199.552 524.32 0 723.936a31.968 31.968 0 1 0 45.248-45.248C20.32 653.76 20.32 369.6 194.912 194.976c84.672-84.672 197.152-131.296 316.704-131.296s232.032 46.624 316.704 131.296c174.592 174.656 174.592 458.784 0 633.408a31.968 31.968 0 1 0 45.248 45.248c199.616-199.616 199.616-524.352 0.032-723.936z" fill="#d81e06" p-id="37594"></path><path d="M760.48 262.816c-66.496-66.528-154.88-103.168-248.832-103.168s-182.336 36.64-248.832 103.168a349.632 349.632 0 0 0-103.168 248.832c0 93.984 36.64 182.336 103.168 248.832a31.968 31.968 0 1 0 45.248-45.248c-112.256-112.256-112.256-294.912 0-407.2 54.432-54.432 126.72-84.416 203.584-84.416s149.152 29.984 203.584 84.416c112.256 112.256 112.256 294.944 0 407.2a31.968 31.968 0 1 0 45.248 45.248 349.568 349.568 0 0 0 103.168-248.832c0-93.952-36.64-182.336-103.168-248.832z" fill="#d81e06" p-id="37595"></path><path d="M602.144 647.392a31.904 31.904 0 0 0 45.248 0 192.256 192.256 0 0 0 0-271.488 192.192 192.192 0 0 0-271.488 0 192.256 192.256 0 0 0 0 271.488 31.968 31.968 0 1 0 45.248-45.248 128.16 128.16 0 0 1 0-180.992 128.16 128.16 0 0 1 180.992 0 128.16 128.16 0 0 1 0 180.992 31.968 31.968 0 0 0 0 45.248z" fill="#d81e06" p-id="37596"></path><path d="M540.064 658.784c-19.744-35.136-52.096-40-71.84-4.864l-179.648 309.632C268.8 998.688 284.96 1008 324.48 1008h359.264c39.52 0 55.68-11.744 35.936-46.88l-179.616-302.336z" fill="#d81e06" p-id="37597"></path></svg>