<?xml version="1.0" standalone="no"?><!DOCTYPE svg PUBLIC "-//W3C//DTD SVG 1.1//EN" "http://www.w3.org/Graphics/SVG/1.1/DTD/svg11.dtd"><svg t="1581329794581" class="icon" viewBox="0 0 1024 1024" version="1.1" xmlns="http://www.w3.org/2000/svg" p-id="3295" xmlns:xlink="http://www.w3.org/1999/xlink" width="200" height="200"><defs><style type="text/css"></style></defs><path d="M295.18 893.34c-5.74 0-11.47-1.7-16.31-5.11-8.33-5.74-12.99-15.5-12.28-25.63l10.58-147.96c0.09-1.79-1.34-3.41-2.69-4.3-49.56-30.92-90.79-71.7-119.19-118.03-29.66-48.48-45.35-103.24-45.35-158.36 0-46.78 10.84-92.13 32.26-134.79 20.52-40.78 49.74-77.34 86.84-108.62 75.37-63.54 175.39-98.49 281.5-98.49s206.04 34.95 281.5 98.49c37.19 31.28 66.41 67.84 86.84 108.62 21.42 42.66 32.26 88.01 32.26 134.79 0 164.9-137.66 306.23-327.2 336.17-13.8 2.15-25.36 5.47-35.49 10.13l-241.26 110.5c-3.86 1.7-7.89 2.59-12.01 2.59z m215.36-743.85c-189.28 0-343.25 127.62-343.25 284.54 0 45.17 12.46 88.37 36.92 128.34 23.75 38.81 58.52 73.13 100.55 99.3 19.9 12.37 31.19 34.23 29.57 57l-7.17 99.75 197.25-90.34c14.88-6.81 31.37-11.56 50.46-14.61 78.15-12.37 149.31-47.32 200.3-98.58 25-25.09 44.45-53.23 57.81-83.62 13.71-31.1 20.7-63.9 20.7-97.33 0.1-156.83-153.87-284.45-343.14-284.45z" p-id="3296"></path><path d="M284.34 435.56c0 31.68 25.68 57.36 57.36 57.36s57.36-25.68 57.36-57.36-25.68-57.36-57.36-57.36-57.36 25.68-57.36 57.36zM456.41 435.56c0 31.68 25.68 57.36 57.36 57.36s57.36-25.68 57.36-57.36-25.68-57.36-57.36-57.36-57.36 25.68-57.36 57.36zM628.48 435.56c0 31.68 25.68 57.36 57.36 57.36s57.36-25.68 57.36-57.36-25.68-57.36-57.36-57.36-57.36 25.68-57.36 57.36z" p-id="3297"></path></svg>