<?xml version="1.0" standalone="no"?><!DOCTYPE svg PUBLIC "-//W3C//DTD SVG 1.1//EN" "http://www.w3.org/Graphics/SVG/1.1/DTD/svg11.dtd"><svg t="1581329900727" class="icon" viewBox="0 0 1024 1024" version="1.1" xmlns="http://www.w3.org/2000/svg" p-id="7020" xmlns:xlink="http://www.w3.org/1999/xlink" width="200" height="200"><defs><style type="text/css"></style></defs><path d="M512.5 523c-6.4 0-11.5-5.1-11.5-11.5s5.1-11.5 11.5-11.5 11.5 5.1 11.5 11.5-5.1 11.5-11.5 11.5z m0-21.3c-5.4 0-9.8 4.4-9.8 9.8s4.4 9.8 9.8 9.8 9.8-4.4 9.8-9.8-4.4-9.8-9.8-9.8z m0.8 10.6v4.9h-1.7v-4.9h-4.9v-1.6h4.9v-4.9h1.7v4.9h4.9v1.6h-4.9z" p-id="7021"></path><path d="M512 1024C229.2 1024 0 794.8 0 512S229.2 0 512 0s512 229.2 512 512-229.2 512-512 512z m-0.5-949.8C269.3 74.2 73 270.5 73 512.6 73 754.7 269.3 951 511.5 951c242.1 0 438.4-196.3 438.4-438.4 0-242.1-196.3-438.4-438.4-438.4z m36.8 474.2v219.8h-74.2V548.4H255.4v-73.1h218.7V255.5h74.2v219.8h219.9v73.1H548.3z" p-id="7022"></path></svg>