<?xml version="1.0" standalone="no"?><!DOCTYPE svg PUBLIC "-//W3C//DTD SVG 1.1//EN" "http://www.w3.org/Graphics/SVG/1.1/DTD/svg11.dtd"><svg t="1581474334094" class="icon" viewBox="0 0 1024 1024" version="1.1" xmlns="http://www.w3.org/2000/svg" p-id="14588" xmlns:xlink="http://www.w3.org/1999/xlink" width="200" height="200"><defs><style type="text/css"></style></defs><path d="M512 57.6C300.8 57.6 121.6 198.4 64 396.8l-64-19.2 51.2 153.6 134.4-102.4-70.4-19.2h6.4C166.4 236.8 326.4 108.8 512 108.8V57.6zM512 108.8c185.6 0 345.6 128 396.8 294.4 6.4 6.4 12.8 12.8 25.6 12.8s25.6-12.8 25.6-25.6V384C902.4 192 723.2 57.6 512 57.6v51.2zM1024 678.4l-51.2-153.6-134.4 102.4 70.4 19.2c-51.2 172.8-211.2 294.4-396.8 294.4-185.6 0-345.6-121.6-396.8-294.4 0-12.8-12.8-19.2-25.6-19.2s-25.6 12.8-25.6 25.6v6.4c57.6 192 236.8 332.8 448 332.8s390.4-140.8 448-332.8l64 19.2m0 0" fill="" p-id="14589"></path></svg>