<?xml version="1.0" standalone="no"?><!DOCTYPE svg PUBLIC "-//W3C//DTD SVG 1.1//EN" "http://www.w3.org/Graphics/SVG/1.1/DTD/svg11.dtd"><svg t="1581474228648" class="icon" viewBox="0 0 1024 1024" version="1.1" xmlns="http://www.w3.org/2000/svg" p-id="11831" xmlns:xlink="http://www.w3.org/1999/xlink" width="200" height="200"><defs><style type="text/css"></style></defs><path d="M512 704l170.666667-170.666667-128 0 0-384-85.333333 0 0 384-128 0L512 704zM896 149.333333l-256 0 0 84.906667 256 0 0 598.613333-768 0L128 234.24l256 0L384 149.333333l-256 0c-46.933333 0-85.333333 38.4-85.333333 85.333333l0 597.333333c0 46.933333 38.4 85.333333 85.333333 85.333333l768 0c46.933333 0 85.333333-38.4 85.333333-85.333333l0-597.333333C981.333333 187.733333 942.933333 149.333333 896 149.333333z" p-id="11832"></path></svg>