<?xml version="1.0" standalone="no"?><!DOCTYPE svg PUBLIC "-//W3C//DTD SVG 1.1//EN" "http://www.w3.org/Graphics/SVG/1.1/DTD/svg11.dtd"><svg t="1581476361594" class="icon" viewBox="0 0 1024 1024" version="1.1" xmlns="http://www.w3.org/2000/svg" p-id="17612" xmlns:xlink="http://www.w3.org/1999/xlink" width="200" height="200"><defs><style type="text/css"></style></defs><path d="M959.6 276.2c0-117.5-95.2-212.7-212.7-212.7s-212.7 95.2-212.7 212.7V489h212.7c117.4 0 212.7-95.3 212.7-212.8zM746.9 108.3c92.8 0 167.9 75.2 167.9 167.9 0 92.8-75.2 167.9-167.9 167.9h-168V276.2c0-92.7 75.2-167.9 168-167.9zM63.9 746.5c0 117.5 95.2 212.7 212.7 212.7 117.5 0 212.7-95.2 212.7-212.7V533.8H276.6c-117.5 0-212.7 95.2-212.7 212.7z m212.7 167.9c-92.8 0-167.9-75.2-167.9-167.9 0-92.8 75.2-167.9 167.9-167.9h167.9v167.9c0.1 92.7-75.1 167.9-167.9 167.9zM746.9 533.8H534.1v212.7c0 117.5 95.2 212.7 212.7 212.7 33 0 64.9-7.5 93.9-21.8 11.1-5.5 15.7-18.9 10.2-30-5.5-11.1-18.9-15.7-30-10.2-22.9 11.3-48 17.2-74.1 17.2-92.8 0-167.9-75.2-167.9-167.9v-168h167.9c92.8 0 167.9 75.2 167.9 167.9 0 16.3-2.3 32.3-6.9 47.7-3.5 11.9 3.3 24.3 15.1 27.8 11.9 3.5 24.3-3.3 27.8-15.1 5.7-19.4 8.7-39.7 8.7-60.3 0.2-117.5-95.1-212.7-212.5-212.7zM276.6 63.5c-117.5 0-212.7 95.2-212.7 212.7 0 117.5 95.2 212.7 212.7 212.7h212.8V276.2c-0.1-117.4-95.3-212.7-212.8-212.7z m168 380.7h-168c-92.8 0-167.9-75.2-167.9-167.9 0-92.8 75.2-167.9 167.9-167.9 92.8 0 167.9 75.2 167.9 167.9v167.9z" p-id="17613"></path></svg>