<?xml version="1.0" standalone="no"?><!DOCTYPE svg PUBLIC "-//W3C//DTD SVG 1.1//EN" "http://www.w3.org/Graphics/SVG/1.1/DTD/svg11.dtd"><svg t="1581474167679" class="icon" viewBox="0 0 1024 1024" version="1.1" xmlns="http://www.w3.org/2000/svg" p-id="10613" xmlns:xlink="http://www.w3.org/1999/xlink" width="200" height="200"><defs><style type="text/css"></style></defs><path d="M286.19264 713.80288c23.07008-17.82592 44.04224-28.31232 61.86752-31.45728 17.82464-3.14496 33.55456-6.29248 49.28256-11.53536v60.81792H299.82528l-13.63264-17.82528z m171.96736-76.54528c16.7776-10.48704 30.41024-15.72992 41.9424-18.87488 11.53536-3.14752 30.41024-5.2416 54.52736-7.33952v120.58496H457.11232V637.2576h1.04768z m178.25728-65.01248c15.72992-13.632 32.50752-24.11712 50.3328-31.45664 17.82528-6.29248 34.60224-10.48576 50.3328-12.5824l-3.14752 210.7616H636.41728V572.24512z m0 0" fill="#FFDAD8" p-id="10614"></path><path d="M397.34272 609.99296H299.82528c-13.63264 0-24.11776 10.48768-24.11776 24.11776v130.02496h145.75232V634.11072c0-13.63008-10.48512-24.11776-24.11712-24.11776z" fill="#FF6666" p-id="10615"></path><path d="M312.40768 646.69312h73.39968v84.93504H312.40768zM590.28032 560.7104c0-13.63328-10.48512-24.1184-24.11776-24.1184H468.64512c-13.63008 0-24.11776 10.48512-24.11776 24.1184v203.42528h145.75232V560.7104z" fill="#FF6666" p-id="10616"></path><path d="M480.17984 573.2928h73.40032v158.33536H480.17984zM733.93472 464.24064H636.41728c-13.63008 0-24.11776 10.48704-24.11776 24.11712v275.77792h145.75232V487.31072c0.00064-12.58304-10.48448-23.07008-24.11712-23.07008z" fill="#FF6666" p-id="10617"></path><path d="M647.95264 498.84544h73.40032v232.78272h-73.40032zM295.63008 529.25312l23.07008-23.06752c7.34016-7.34016 7.34016-18.87488 0-25.168-7.34016-7.33952-18.87488-7.33952-25.16736 0l-23.06752 23.07008c-7.34016 7.34016-7.34016 18.87552 0 25.16544 7.33952 7.33952 18.87488 7.33952 25.1648 0zM752.81024 266.06016c-3.14496-3.14496-7.34016-5.24224-12.5824-5.24224h-59.77024c-9.43744 0-17.82528 8.3872-17.82528 17.82528 0 10.48704 8.3872 17.8272 17.82528 17.8272h19.92256L552.53248 446.41536 458.16 352.04288c-1.04768-2.09472-3.14496-3.14496-5.24224-4.19264-7.34016-5.24224-17.82528-5.24224-24.11776 1.04768L343.86496 434.88064c-7.34016 7.33952-7.34016 18.87488 0 25.16736 7.34016 7.34016 18.87488 7.34016 25.1648 0l73.40288-73.40032 96.4672 97.51744c5.24224 5.24288 13.63264 6.29056 20.9728 3.1456 2.09728-1.04768 4.1952-2.09792 6.28992-4.1952l156.24-157.28512v12.5824c0 10.48512 8.3872 17.82528 17.82528 17.82528s17.82528-7.34016 17.82528-16.7776V278.6432c-0.00064-4.19264-2.09792-9.43808-5.24288-12.58304z" fill="#FF6666" p-id="10618"></path></svg>