<?xml version="1.0" standalone="no"?><!DOCTYPE svg PUBLIC "-//W3C//DTD SVG 1.1//EN" "http://www.w3.org/Graphics/SVG/1.1/DTD/svg11.dtd"><svg t="1581474205970" class="icon" viewBox="0 0 1024 1024" version="1.1" xmlns="http://www.w3.org/2000/svg" p-id="11396" xmlns:xlink="http://www.w3.org/1999/xlink" width="200" height="200"><defs><style type="text/css"></style></defs><path d="M729.2 319.6v-41.3h-467v41.3h329.5zM261.7 525.6h165v41.3h-165zM262.2 395.5h181.3v41.3H262.2z" p-id="11397"></path><path d="M870 696.9l-0.3-490.8c0-24.2-11.7-46-30.5-61.8-18.5-15.5-44-25.2-71.8-25.2H246c-27.9 0-53.3 9.7-71.8 25.2-18.8 15.8-30.5 37.7-30.5 61.8v698.5h385.4l-59.3-60H203V206.1c0-7 5.6-12.8 9-15.6 8.7-7.2 21.1-11.4 34-11.4h521.3c13 0 25.4 4.2 34 11.4 3.4 2.8 9 8.6 9 15.6v369c-31.1-27.8-72-44.8-117.1-44.8-97.6 0-176.7 79.1-176.7 176.7s79.1 176.7 176.7 176.7c43.6 0 83.4-16 114.2-42.3l32.2 32.2V752.4h-121l60.3 60.3c-23.4 19-53 30.6-85.5 30.6-75.4 0-136.4-61-136.4-136.3 0-75.3 61-136.3 136.3-136.3 73.6 0 133.4 58.3 136 131.2h0.3v5c0 2.8 2.3 5 5 5h30.3c2.8 0 5.1-2.3 5.1-5v-10z" p-id="11398"></path></svg>