<?xml version="1.0" standalone="no"?><!DOCTYPE svg PUBLIC "-//W3C//DTD SVG 1.1//EN" "http://www.w3.org/Graphics/SVG/1.1/DTD/svg11.dtd"><svg t="1581474142621" class="icon" viewBox="0 0 1024 1024" version="1.1" xmlns="http://www.w3.org/2000/svg" p-id="9194" xmlns:xlink="http://www.w3.org/1999/xlink" width="200" height="200"><defs><style type="text/css"></style></defs><path d="M267.062963 466.030016c-12.608156-35.340903-20.062941-67.440995-23.584138-84.60184-65.708538 41.34157-100.008738 137.173173-100.008738 214.709083 0 200.310142 165.324326 363.272677 368.532471 363.272677 98.41238 0 190.939727-37.769208 260.538875-106.352213 69.638033-68.61882 107.98848-159.861918 107.986433-256.920464 0-38.07006-5.010107-135.074372-51.411927-213.366506l-0.318248-0.585331c-15.232936-30.617321-26.942629-57.5753-36.558637-119.160937-78.933747 27.203572-111.37153 100.273774-96.42512 217.387076l3.27765 25.689079-19.198248-17.97335C590.297762 404.249951 551.048853 265.62573 560.066227 64.590064 441.05367 103.830787 370.617457 183.550433 350.621031 301.717739c-17.217127 101.734032 6.865361 209.534224 19.805068 267.447215 2.172479 9.720386 4.046153 18.120706 5.469572 25.232684l3.978614 19.902282-18.023492-10.264784C323.920926 582.429049 292.029588 535.998577 267.062963 466.030016L267.062963 466.030016zM434.037882 655.535067c-2.094708-8.204869-4.329609-16.778128-6.653537-25.691125-19.822464-76.023464-44.49233-170.640402-42.697451-262.47804 0.991584-50.525744 10.270924-95.052866 27.580149-132.347261 20.240997-43.608194 52.104705-78.93477 94.702895-104.998379l14.47262-8.855692 0 16.601096c0 120.098285 20.920472 221.881436 60.499909 294.343795 40.058344 73.338309 96.161107 112.479771 166.897148 116.496248-15.545044-54.368258-24.601304-146.307204 1.898233-198.686155l10.481725-20.717857 7.009647 22.055318c3.469008 10.915607 10.036587 25.384134 17.637706 42.138726 21.803585 48.049343 54.755068 120.661104 55.394634 202.671932l0.00307 0.404206-0.031722 0.402159c-7.451716 90.028433-43.62252 171.874509-101.852736 230.459812-29.322839 29.499871-63.382563 52.496631-101.233636 68.335365-39.257096 16.433274-81.697697 24.76401-126.141932 24.76401-88.312348 0-170.353876-32.69668-231.012398-92.066859-60.927651-59.631122-95.820346-142.020574-98.247628-231.982492-0.972141-36.271088 20.228717-112.566752 35.449373-127.562281l10.618848-10.462283 5.012154 13.853519c1.222851 3.381004 2.533706 7.182586 3.921309 11.207249C256.505513 537.825179 294.97671 649.419789 434.037882 655.535067L434.037882 655.535067z" p-id="9195"></path></svg>