<?xml version="1.0" standalone="no"?><!DOCTYPE svg PUBLIC "-//W3C//DTD SVG 1.1//EN" "http://www.w3.org/Graphics/SVG/1.1/DTD/svg11.dtd"><svg t="1581474311351" class="icon" viewBox="0 0 1024 1024" version="1.1" xmlns="http://www.w3.org/2000/svg" p-id="14434" xmlns:xlink="http://www.w3.org/1999/xlink" width="200" height="200"><defs><style type="text/css"></style></defs><path d="M618.666667 469.333333c0 59.733333-46.933333 106.666667-106.666667 106.666667S405.333333 529.066667 405.333333 469.333333s46.933333-106.666667 106.666667-106.666666 106.666667 46.933333 106.666667 106.666666z m320 42.666667c0 234.666667-192 426.666667-426.666667 426.666667S85.333333 746.666667 85.333333 512 277.333333 85.333333 512 85.333333s426.666667 192 426.666667 426.666667zM422.4 588.8c-89.6 29.866667-162.133333 106.666667-183.466667 200.533333v4.266667s4.266667 8.533333 17.066667 12.8l25.6 12.8c17.066667-115.2 115.2-204.8 230.4-204.8s217.6 85.333333 230.4 200.533333c12.8-4.266667 21.333333-8.533333 25.6-12.8 12.8-8.533333 12.8-12.8 12.8-12.8-21.333333-93.866667-93.866667-170.666667-183.466667-200.533333 38.4-25.6 59.733333-72.533333 59.733334-119.466667 0-81.066667-68.266667-149.333333-149.333334-149.333333S362.666667 388.266667 362.666667 469.333333c0 51.2 25.6 93.866667 59.733333 119.466667z" p-id="14435"></path></svg>