<?xml version="1.0" standalone="no"?><!DOCTYPE svg PUBLIC "-//W3C//DTD SVG 1.1//EN" "http://www.w3.org/Graphics/SVG/1.1/DTD/svg11.dtd"><svg t="1581474032874" class="icon" viewBox="0 0 1024 1024" version="1.1" xmlns="http://www.w3.org/2000/svg" p-id="2512" xmlns:xlink="http://www.w3.org/1999/xlink" width="200" height="200"><defs><style type="text/css"></style></defs><path d="M734.278 800.635l-235.361-1.506c-6.077-1.151-15.667-5.978-22.174-24.154-7.482-20.894-33.723-27.581-47.037-29.675h-61.757v-0.086h-0.285l0.849-245.85c80.329 0 147.125-174.301 163.19-221.523s53.269-54.097 53.269-54.097h27.902c54.117 0 41.82 52.518 41.82 52.518v25.050c0 24.249-22.518 32.929-22.518 49.589s0.878 29.814 0.878 29.814c0 28.064 32.238 35.349 32.238 35.349h80.315c54.117 0 54.961 55.807 54.961 55.807v246.42c0.019 77.376-66.293 82.339-66.293 82.339zM223.549 463.924h96.151v312.491h-96.151v-312.491z" fill="#fd2c49" p-id="2513"></path></svg>