<?xml version="1.0" standalone="no"?><!DOCTYPE svg PUBLIC "-//W3C//DTD SVG 1.1//EN" "http://www.w3.org/Graphics/SVG/1.1/DTD/svg11.dtd"><svg t="1581393571668" class="icon" viewBox="0 0 1024 1024" version="1.1" xmlns="http://www.w3.org/2000/svg" p-id="14593" xmlns:xlink="http://www.w3.org/1999/xlink" width="200" height="200"><defs><style type="text/css"></style></defs><path d="M0 0m121.904762 0l780.190476 0q121.904762 0 121.904762 121.904762l0 780.190476q0 121.904762-121.904762 121.904762l-780.190476 0q-121.904762 0-121.904762-121.904762l0-780.190476q0-121.904762 121.904762-121.904762Z" fill="#00A4FF" p-id="14594"></path><path d="M804.571429 512v260.071619a24.380952 24.380952 0 0 1-31.207619 23.405714L219.428571 633.904762v-121.904762h585.142858z" fill="#FFFFFF" opacity=".5" p-id="14595"></path><path d="M268.190476 243.809524h487.619048a48.761905 48.761905 0 0 1 48.761905 48.761905v299.398095a24.380952 24.380952 0 0 1-16.676572 23.113143l-536.380952 178.785523A24.380952 24.380952 0 0 1 219.428571 770.755048V292.571429a48.761905 48.761905 0 0 1 48.761905-48.761905z" fill="#FFFFFF" p-id="14596"></path></svg>