<?xml version="1.0" standalone="no"?><!DOCTYPE svg PUBLIC "-//W3C//DTD SVG 1.1//EN" "http://www.w3.org/Graphics/SVG/1.1/DTD/svg11.dtd"><svg t="1581393365338" class="icon" viewBox="0 0 1024 1024" version="1.1" xmlns="http://www.w3.org/2000/svg" p-id="1668" xmlns:xlink="http://www.w3.org/1999/xlink" width="200" height="200"><defs><style type="text/css"></style></defs><path d="M0 0m113.777778 0l796.444444 0q113.777778 0 113.777778 113.777778l0 796.444444q0 113.777778-113.777778 113.777778l-796.444444 0q-113.777778 0-113.777778-113.777778l0-796.444444q0-113.777778 113.777778-113.777778Z" fill="#FA9D3B" p-id="1669"></path><path d="M758.357333 645.518222h-52.280889v52.337778h-26.168888v-52.337778h-52.280889v-26.168889h52.280889v-52.309333h26.168888v52.337778h52.280889v26.140444z m-65.365333-130.787555a117.674667 117.674667 0 1 0 0.028444 235.377777 117.674667 117.674667 0 0 0 0-235.377777z" fill="#FFFFFF" p-id="1670"></path><path d="M536.092444 632.433778c0-9.898667 1.024-19.541333 2.844445-28.928a14.165333 14.165333 0 0 0-5.660445-14.392889c-11.548444-8.078222-18.801778-15.160889-18.801777-20.252445v-21.333333c30.151111-29.070222 58.368-75.861333 58.368-121.201778v-42.752c0-64.768-49.578667-109.397333-110.136889-109.397333-60.586667 0-110.165333 44.657778-110.165334 109.397333v42.752c0 45.056 28.216889 91.932444 58.396445 121.088V568.888889c0 23.893333-157.582222 89.998222-177.180445 105.386667-11.889778 9.329778-19.342222 28.330667-20.451555 48.924444a22.215111 22.215111 0 0 0 22.442667 23.153778h349.496888a156.330667 156.330667 0 0 1-49.152-113.891556" fill="#FFFFFF" p-id="1671"></path></svg>