<?xml version="1.0" standalone="no"?><!DOCTYPE svg PUBLIC "-//W3C//DTD SVG 1.1//EN" "http://www.w3.org/Graphics/SVG/1.1/DTD/svg11.dtd"><svg t="1581472081142" class="icon" viewBox="0 0 1063 1024" version="1.1" xmlns="http://www.w3.org/2000/svg" p-id="6052" xmlns:xlink="http://www.w3.org/1999/xlink" width="207.6171875" height="200"><defs><style type="text/css"></style></defs><path d="M470.552381 536.380952c19.504762-9.752381 36.571429-21.942857 53.638095-39.009523 39.009524-39.009524 60.952381-90.209524 60.952381-148.72381 0-58.514286-24.380952-112.152381-60.952381-148.723809-39.009524-39.009524-90.209524-60.952381-146.285714-60.952381-58.514286 0-109.714286 24.380952-146.285714 60.952381C192.609524 238.933333 170.666667 290.133333 170.666667 348.647619c0 58.514286 24.380952 112.152381 60.952381 148.72381 14.628571 14.628571 34.133333 29.257143 53.638095 39.009523-63.390476 17.066667-121.904762 51.2-168.228572 97.52381C48.761905 702.171429 7.314286 787.504762 7.314286 892.342857v2.438095c2.438095 12.190476 24.380952 21.942857 24.380952 21.942858s443.733333 2.438095 694.857143 0c12.190476 0 21.942857-9.752381 24.380952-21.942858v-2.438095c0-102.4-41.447619-190.171429-109.714285-258.438095-46.32381-46.32381-104.838095-80.457143-170.666667-97.52381z m202.361905-277.942857v48.761905h390.095238v-48.761905h-390.095238z m219.428571 536.380953h170.666667v-48.761905h-170.666667v48.761905z m-121.904762-243.809524h292.571429v-48.761905h-292.571429v48.761905z" fill="#4cbd2d" p-id="6053"></path></svg>