<?xml version="1.0" standalone="no"?><!DOCTYPE svg PUBLIC "-//W3C//DTD SVG 1.1//EN" "http://www.w3.org/Graphics/SVG/1.1/DTD/svg11.dtd"><svg t="1581329855961" class="icon" viewBox="0 0 1024 1024" version="1.1" xmlns="http://www.w3.org/2000/svg" p-id="5529" xmlns:xlink="http://www.w3.org/1999/xlink" width="200" height="200"><defs><style type="text/css"></style></defs><path d="M684.36992 612.81792c-62.14144-22.69184-76.04224-55.65952-63.37024-84.82816 12.69248-29.16864 100.68992-61.58848 100.68992-203.85792 0-150.84032-116.84864-229.8112-209.6896-229.8112S302.3104 173.29152 302.3104 324.13184c0 142.26944 88.00768 174.68928 100.70016 203.85792 12.66176 29.16864-1.23904 62.14144-63.38048 84.82816-111.62112 40.75008-230.13888 138.91072-239.09888 297.15968-0.60928 10.60864 7.98208 19.70176 18.92864 19.70176H904.5504c10.94144 0 19.53792-9.088 18.9184-19.70176-8.96-158.24896-127.46752-256.4096-239.09888-297.15968zM512 865.88928H171.36128c31.34976-125.44 150.8096-178.80064 190.15168-193.16224 51.35872-18.74944 85.248-46.56128 100.75136-82.65216 11.93984-27.81184 11.66848-58.88-0.768-87.53664-8.57088-19.70688-23.08096-33.24416-37.13024-46.336-27.31008-25.47712-58.27072-54.34368-58.27072-132.07552 0-113.25952 87.07072-166.03136 145.90976-166.03136s145.90976 52.77184 145.90976 166.03136c0 77.73184-30.96064 106.5984-58.27072 132.07552-14.03904 13.09184-28.54912 26.62912-37.15072 46.37696-12.42112 28.61568-12.68224 59.68896-0.74752 87.49568 15.49824 36.09088 49.39776 63.8976 100.75136 82.65216 39.34208 14.3616 158.78144 67.69152 190.14144 193.16224H512z" p-id="5530"></path></svg>